<svg id="visual" viewBox="0 0 960 540" width="960" height="540" xmlns="http://www.w3.org/2000/svg" xmlns:xlink="http://www.w3.org/1999/xlink" version="1.1"><rect x="0" y="0" width="960" height="540" fill="#001220">
</rect><defs><linearGradient id="grad1_0" x1="43.8%" y1="100%" x2="100%" y2="0%"><stop offset="14.444444444444446%" stop-color="#fbae3c" stop-opacity="1">
</stop><stop offset="85.55555555555554%" stop-color="#fbae3c" stop-opacity="1">
</stop></linearGradient></defs><defs><linearGradient id="grad1_1" x1="43.8%" y1="100%" x2="100%" y2="0%"><stop offset="14.444444444444446%" stop-color="#fbae3c" stop-opacity="1">
</stop><stop offset="85.55555555555554%" stop-color="#e1685e" stop-opacity="1">
</stop></linearGradient></defs><defs><linearGradient id="grad1_2" x1="43.8%" y1="100%" x2="100%" y2="0%"><stop offset="14.444444444444446%" stop-color="#96446e" stop-opacity="1">
</stop><stop offset="85.55555555555554%" stop-color="#e1685e" stop-opacity="1">
</stop></linearGradient></defs><defs><linearGradient id="grad1_3" x1="43.8%" y1="100%" x2="100%" y2="0%"><stop offset="14.444444444444446%" stop-color="#96446e" stop-opacity="1">
</stop><stop offset="85.55555555555554%" stop-color="#3d3056" stop-opacity="1">
</stop></linearGradient></defs><defs><linearGradient id="grad1_4" x1="43.8%" y1="100%" x2="100%" y2="0%"><stop offset="14.444444444444446%" stop-color="#001220" stop-opacity="1">
</stop><stop offset="85.55555555555554%" stop-color="#3d3056" stop-opacity="1">
</stop></linearGradient></defs><defs><linearGradient id="grad2_0" x1="0%" y1="100%" x2="56.3%" y2="0%"><stop offset="14.444444444444446%" stop-color="#fbae3c" stop-opacity="1">
</stop><stop offset="85.55555555555554%" stop-color="#fbae3c" stop-opacity="1">
</stop></linearGradient></defs><defs><linearGradient id="grad2_1" x1="0%" y1="100%" x2="56.3%" y2="0%"><stop offset="14.444444444444446%" stop-color="#e1685e" stop-opacity="1">
</stop><stop offset="85.55555555555554%" stop-color="#fbae3c" stop-opacity="1">
</stop></linearGradient></defs><defs><linearGradient id="grad2_2" x1="0%" y1="100%" x2="56.3%" y2="0%"><stop offset="14.444444444444446%" stop-color="#e1685e" stop-opacity="1">
</stop><stop offset="85.55555555555554%" stop-color="#96446e" stop-opacity="1">
</stop></linearGradient></defs><defs><linearGradient id="grad2_3" x1="0%" y1="100%" x2="56.3%" y2="0%"><stop offset="14.444444444444446%" stop-color="#3d3056" stop-opacity="1">
</stop><stop offset="85.55555555555554%" stop-color="#96446e" stop-opacity="1">
</stop></linearGradient></defs><defs><linearGradient id="grad2_4" x1="0%" y1="100%" x2="56.3%" y2="0%"><stop offset="14.444444444444446%" stop-color="#3d3056" stop-opacity="1">
</stop><stop offset="85.55555555555554%" stop-color="#001220" stop-opacity="1">
</stop></linearGradient></defs><g transform="translate(960, 540)"><path d="M-432 0C-433.6 -48.5 -435.2 -96.9 -406.1 -132C-377 -167 -317.3 -188.6 -271 -196.9C-224.7 -205.3 -191.9 -200.4 -175.7 -241.9C-159.6 -283.4 -160 -371.4 -133.5 -410.9C-107 -450.3 -53.5 -441.1 0 -432L0 0Z" fill="#18223c">
</path><path d="M-345.6 0C-346.9 -38.8 -348.1 -77.5 -324.9 -105.6C-301.6 -133.6 -253.8 -150.9 -216.8 -157.5C-179.8 -164.2 -153.5 -160.3 -140.6 -193.5C-127.7 -226.8 -128 -297.1 -106.8 -328.7C-85.6 -360.2 -42.8 -352.9 0 -345.6L0 0Z" fill="#683a67">
</path><path d="M-259.2 0C-260.2 -29.1 -261.1 -58.2 -243.7 -79.2C-226.2 -100.2 -190.4 -113.1 -162.6 -118.1C-134.8 -123.2 -115.2 -120.2 -105.4 -145.1C-95.7 -170.1 -96 -222.9 -80.1 -246.5C-64.2 -270.2 -32.1 -264.7 0 -259.2L0 0Z" fill="#c0526a">
</path><path d="M-172.8 0C-173.4 -19.4 -174.1 -38.8 -162.4 -52.8C-150.8 -66.8 -126.9 -75.4 -108.4 -78.8C-89.9 -82.1 -76.8 -80.1 -70.3 -96.8C-63.8 -113.4 -64 -148.6 -53.4 -164.3C-42.8 -180.1 -21.4 -176.5 0 -172.8L0 0Z" fill="#f6884d">
</path><path d="M-86.4 0C-86.7 -9.7 -87 -19.4 -81.2 -26.4C-75.4 -33.4 -63.5 -37.7 -54.2 -39.4C-44.9 -41.1 -38.4 -40.1 -35.1 -48.4C-31.9 -56.7 -32 -74.3 -26.7 -82.2C-21.4 -90.1 -10.7 -88.2 0 -86.4L0 0Z" fill="#fbae3c">
</path></g><g transform="translate(0, 0)"><path d="M432 0C408.9 36.2 385.9 72.4 381.4 123.9C376.9 175.4 390.9 242.2 349.5 253.9C308.1 265.6 211.4 222.2 166.3 229C121.3 235.7 127.9 292.6 108.8 334.8C89.7 377 44.8 404.5 0 432L0 0Z" fill="#18223c">
</path><path d="M345.6 0C327.2 29 308.7 57.9 305.1 99.1C301.5 140.3 312.7 193.8 279.6 203.1C246.5 212.5 169.1 177.8 133.1 183.2C97 188.6 102.3 234.1 87 267.8C71.7 301.6 35.9 323.6 0 345.6L0 0Z" fill="#683a67">
</path><path d="M259.2 0C245.4 21.7 231.5 43.4 228.8 74.3C226.1 105.3 234.5 145.3 209.7 152.4C184.9 159.4 126.8 133.3 99.8 137.4C72.8 141.4 76.7 175.5 65.3 200.9C53.8 226.2 26.9 242.7 0 259.2L0 0Z" fill="#c0526a">
</path><path d="M172.8 0C163.6 14.5 154.4 29 152.5 49.6C150.7 70.2 156.3 96.9 139.8 101.6C123.3 106.2 84.6 88.9 66.5 91.6C48.5 94.3 51.2 117 43.5 133.9C35.9 150.8 17.9 161.8 0 172.8L0 0Z" fill="#f6884d">
</path><path d="M86.4 0C81.8 7.2 77.2 14.5 76.3 24.8C75.4 35.1 78.2 48.4 69.9 50.8C61.6 53.1 42.3 44.4 33.3 45.8C24.3 47.1 25.6 58.5 21.8 67C17.9 75.4 9 80.9 0 86.4L0 0Z" fill="#fbae3c">
</path></g></svg>